# xmcd
# Copyright (C) 1995-1998 Ti Kan
#
# Track frame offsets:
#       150
#       17250
#       29925
#       52425
#       76500
#       96000
#       111937
#       129375
#       150075
#       159750
#       180750
#       191700
#       213300
#       224972
#       243225
#       257400
#       273900
#       293062
#       313500
#       332766
#
# Disc length: 4570 seconds
#
# Revision: 0
# Processed by: cddbd v1.5.2PL0 Copyright (c) Steve Scherf et al.
# Submitted via: CD-Import v1.0
#
DISCID=0c11d814
DTITLE=Stiller Has - 20 Goldige Hasensongs
DYEAR=2007
DGENRE=
TTITLE0=Aare
TTITLE1=Pirat
TTITLE2=Znüni Näh
TTITLE3=Walliselle
TTITLE4=Moudi
TTITLE5=Trüebi Fyge
TTITLE6=Fäderliecht
TTITLE7=Elvira
TTITLE8=Hündeler
TTITLE9=Summer
TTITLE10=Gruusig
TTITLE11=Furt
TTITLE12=Chicken
TTITLE13=Fisch
TTITLE14=Schätzeli
TTITLE15=Tschäggeti Chüe
TTITLE16=Süde
TTITLE17=So Long Hasi
TTITLE18=Vatter La Mi La Gah
TTITLE19=Wilde Has
EXTD=
EXTT0=
EXTT1=
EXTT2=
EXTT3=
EXTT4=
EXTT5=
EXTT6=
EXTT7=
EXTT8=
EXTT9=
EXTT10=
EXTT11=
EXTT12=
EXTT13=
EXTT14=
EXTT15=
EXTT16=
EXTT17=
EXTT18=
EXTT19=
PLAYORDER=
